<mxfile host="app.diagrams.net" modified="2024-03-21T08:15:17.558Z" agent="Mozilla/5.0 (Windows NT 10.0; Win64; x64) AppleWebKit/537.36 (KHTML, like Gecko) Chrome/122.0.0.0 Safari/537.36" etag="dQLv3DXLv5F7lgPk9N5j" version="24.0.7" type="github">
  <diagram name="Page-1" id="knE5WXtzzAFpbcAFHKUK">
    <mxGraphModel dx="1195" dy="635" grid="1" gridSize="10" guides="1" tooltips="1" connect="1" arrows="1" fold="1" page="1" pageScale="1" pageWidth="850" pageHeight="1100" math="0" shadow="0">
      <root>
        <mxCell id="0" />
        <mxCell id="1" parent="0" />
        <mxCell id="gKRz7DL3-RSYWouXHnAW-1" value="Twitter-Reader" style="rounded=0;whiteSpace=wrap;html=1;" parent="1" vertex="1">
          <mxGeometry x="20" y="255" width="120" height="60" as="geometry" />
        </mxCell>
        <mxCell id="gKRz7DL3-RSYWouXHnAW-2" value="Tweet-Request-Submitter&lt;div&gt;&lt;br&gt;&lt;/div&gt;" style="rounded=0;whiteSpace=wrap;html=1;" parent="1" vertex="1">
          <mxGeometry x="350" y="260" width="180" height="50" as="geometry" />
        </mxCell>
        <mxCell id="gKRz7DL3-RSYWouXHnAW-3" value="Tweet-Request-Submitter&lt;div&gt;&lt;br&gt;&lt;/div&gt;" style="rounded=0;whiteSpace=wrap;html=1;" parent="1" vertex="1">
          <mxGeometry x="350" y="320" width="180" height="50" as="geometry" />
        </mxCell>
        <mxCell id="gKRz7DL3-RSYWouXHnAW-4" value="Tweet-Request-Submitter&lt;div&gt;&lt;br&gt;&lt;/div&gt;" style="rounded=0;whiteSpace=wrap;html=1;" parent="1" vertex="1">
          <mxGeometry x="350" y="200" width="180" height="50" as="geometry" />
        </mxCell>
        <mxCell id="gKRz7DL3-RSYWouXHnAW-5" value="Load Balancer&lt;div&gt;Cluster IP Service&lt;/div&gt;&lt;div&gt;&lt;br&gt;&lt;/div&gt;" style="rounded=0;whiteSpace=wrap;html=1;" parent="1" vertex="1">
          <mxGeometry x="210" y="190" width="70" height="180" as="geometry" />
        </mxCell>
        <mxCell id="gKRz7DL3-RSYWouXHnAW-6" value="Twitter Message Service" style="rounded=0;whiteSpace=wrap;html=1;" parent="1" vertex="1">
          <mxGeometry x="590" y="250" width="120" height="60" as="geometry" />
        </mxCell>
        <mxCell id="lfBkwq7bgcHvAH7FowIp-1" value="Word Processor" style="rounded=0;whiteSpace=wrap;html=1;" vertex="1" parent="1">
          <mxGeometry x="770" y="140" width="120" height="60" as="geometry" />
        </mxCell>
        <mxCell id="lfBkwq7bgcHvAH7FowIp-2" value="Word Processor&lt;div&gt;&lt;br&gt;&lt;/div&gt;" style="rounded=0;whiteSpace=wrap;html=1;" vertex="1" parent="1">
          <mxGeometry x="770" y="230" width="120" height="60" as="geometry" />
        </mxCell>
        <mxCell id="lfBkwq7bgcHvAH7FowIp-3" value="Word Processor&lt;div&gt;&lt;br&gt;&lt;/div&gt;" style="rounded=0;whiteSpace=wrap;html=1;" vertex="1" parent="1">
          <mxGeometry x="770" y="310" width="120" height="60" as="geometry" />
        </mxCell>
        <mxCell id="lfBkwq7bgcHvAH7FowIp-4" value="Word Processor" style="rounded=0;whiteSpace=wrap;html=1;" vertex="1" parent="1">
          <mxGeometry x="770" y="390" width="120" height="60" as="geometry" />
        </mxCell>
        <mxCell id="lfBkwq7bgcHvAH7FowIp-5" value="Kafka-Word-Count-Topic&lt;div&gt;Partition 5&lt;br&gt;&lt;div&gt;&lt;br&gt;&lt;/div&gt;&lt;/div&gt;" style="rounded=0;whiteSpace=wrap;html=1;" vertex="1" parent="1">
          <mxGeometry x="980" y="260" width="120" height="60" as="geometry" />
        </mxCell>
        <mxCell id="lfBkwq7bgcHvAH7FowIp-6" value="Kafka-Word-Count-Topic&lt;div&gt;&lt;br&gt;&lt;/div&gt;" style="rounded=0;whiteSpace=wrap;html=1;" vertex="1" parent="1">
          <mxGeometry x="1160" y="100" width="120" height="60" as="geometry" />
        </mxCell>
        <mxCell id="lfBkwq7bgcHvAH7FowIp-7" value="Kafka-Word-Count-Topic&lt;div&gt;&lt;br&gt;&lt;/div&gt;" style="rounded=0;whiteSpace=wrap;html=1;" vertex="1" parent="1">
          <mxGeometry x="1155" y="190" width="120" height="60" as="geometry" />
        </mxCell>
        <mxCell id="lfBkwq7bgcHvAH7FowIp-8" value="Kafka-Word-Count-Topic&lt;div&gt;&lt;br&gt;&lt;/div&gt;" style="rounded=0;whiteSpace=wrap;html=1;" vertex="1" parent="1">
          <mxGeometry x="1160" y="280" width="120" height="60" as="geometry" />
        </mxCell>
        <mxCell id="lfBkwq7bgcHvAH7FowIp-9" value="Kafka-Word-Count-Topic&lt;div&gt;&lt;br&gt;&lt;/div&gt;" style="rounded=0;whiteSpace=wrap;html=1;" vertex="1" parent="1">
          <mxGeometry x="1155" y="370" width="120" height="60" as="geometry" />
        </mxCell>
        <mxCell id="lfBkwq7bgcHvAH7FowIp-10" value="Kafka-Word-Count-Topic&lt;div&gt;&lt;br&gt;&lt;/div&gt;" style="rounded=0;whiteSpace=wrap;html=1;" vertex="1" parent="1">
          <mxGeometry x="1160" y="460" width="120" height="60" as="geometry" />
        </mxCell>
        <mxCell id="lfBkwq7bgcHvAH7FowIp-11" value="Cassandra Instance&lt;div&gt;Word count table&lt;/div&gt;" style="rounded=0;whiteSpace=wrap;html=1;" vertex="1" parent="1">
          <mxGeometry x="1440" y="280" width="120" height="60" as="geometry" />
        </mxCell>
        <mxCell id="lfBkwq7bgcHvAH7FowIp-12" value="&lt;div&gt;Word Count Display Service&lt;/div&gt;" style="rounded=0;whiteSpace=wrap;html=1;" vertex="1" parent="1">
          <mxGeometry x="1370" y="370" width="120" height="60" as="geometry" />
        </mxCell>
        <mxCell id="lfBkwq7bgcHvAH7FowIp-13" value="&lt;div&gt;Word Count Display Service&lt;/div&gt;" style="rounded=0;whiteSpace=wrap;html=1;" vertex="1" parent="1">
          <mxGeometry x="1520" y="370" width="120" height="60" as="geometry" />
        </mxCell>
        <mxCell id="lfBkwq7bgcHvAH7FowIp-14" value="UI Application&lt;div&gt;Dynamically Display top used word&lt;/div&gt;" style="rounded=0;whiteSpace=wrap;html=1;" vertex="1" parent="1">
          <mxGeometry x="1440" y="540" width="120" height="60" as="geometry" />
        </mxCell>
        <mxCell id="lfBkwq7bgcHvAH7FowIp-15" value="LB Service" style="rounded=0;whiteSpace=wrap;html=1;" vertex="1" parent="1">
          <mxGeometry x="1440" y="470" width="120" height="40" as="geometry" />
        </mxCell>
      </root>
    </mxGraphModel>
  </diagram>
</mxfile>
